<svg height="960" viewBox="0 0 960 960" width="960" xmlns="http://www.w3.org/2000/svg"><g fill="none" fill-rule="evenodd"><path d="m372.695001 205.962424 327.473382 16.170926c139.721068 8.186414 230.363664 143.796249 230.363664 296.666687 0 152.870437-90.642596 281.233247-230.363664 291.544764l-327.473382 21.147284c-139.721069 7.749949-262.637122-131.728971-262.637122-310.840911s122.916053-320.313596 262.637122-314.68875z" stroke="#000" stroke-linecap="round" stroke-linejoin="round" stroke-width="20"/><path d="m364.422628 194.999071.02585.000931c2.672239.000356 5.351444.05612 8.036861.168092l327.284128 16.739234c139.640321 8.474115 230.230533 148.849791 230.230533 307.092672s-90.590212 291.116844-230.230533 301.790747l-327.284128 21.890479c-19.834124 1.139467-39.329409-.795733-58.181967-5.486443-57.739355-5.019426-87.412254-7.527736-89.018573-7.532081-108.658642-.293878-202.284799-133.305742-202.284799-309.153932 0-172.023481 89.597699-302.412496 195.216944-310.514507 3.546677-.272064 64.920702-6.635246 107.011987-10.98415l-.005352-.00997c12.813298-2.629993 25.889943-3.995946 39.138013-4.000133.034694-.000086.054943-.001255.061036-.000939z" stroke="#000" stroke-linecap="round" stroke-linejoin="round" stroke-width="40"/><g fill="#000"><circle cx="489.152856" cy="325.692917" r="20.26447"/><circle cx="554.771139" cy="326.657892" r="19.299495"/><circle cx="620.389423" cy="327.622867" r="18.33452"/></g></g></svg>