<svg height="960" viewBox="0 0 960 960" width="960" xmlns="http://www.w3.org/2000/svg"><g fill="none" fill-rule="evenodd" stroke="#000" stroke-linecap="round" stroke-linejoin="round"><path d="m445.944501 24c6.139226 0 16.584458.9548392 25.035533 2.8098318 31.811478 6.9825499 83.656029 26.7195059 111.836375 56.2941715 35.666769 37.4315067 63.183591 62.0257877 63.183591 88.2950077 0 26.269221-9.47327 72.14896-44.23736 109.580489s-77.697634 87.960007-82.192278 144.28402c-.944661 11.837889-1.591506 35.700304-1.940535 71.587243 24.615964 5.557167 41.370173 16.525419 41.370173 29.149237 0 12.674159-16.888102 23.679522-41.663119 29.207895-.120764 80.316421.624229 195.53685 2.233481 345.65239l-39.070362 37.139715-37.460441-37.139715-.000002-346.025165c-23.886339-5.640629-40.039557-16.439785-40.039557-28.83512s16.153218-23.194491 40.039557-28.83512l.000002-65.507387c0-51.241062-91.718373-161.308875-111.637993-227.753443-19.919619-66.444567-21.396329-128.4713458-6.055828-154.1441217 10.227-17.115184 37.478185-25.7018267 81.753554-25.7599283z" stroke-width="40"/><g stroke-width="20"><path d="m314.789878 89.7398343c15.177328 73.9555917 48.158877 118.3575037 98.944647 133.2057367 76.178654 22.272348 189.140343 22.272348 227.18641-19.47195"/><path d="m326.013593 48.0401694c-1.870591 5.3970345-2.859697 8.5881515-2.96732 9.573351-1.708211 15.6372716.395686 20.3783229 1.41884 24.1861068 16.744106 62.3151068 48.193884 100.2198928 94.349335 113.7143588 61.453563 17.967174 146.724937 21.266834 197.533213.196643 23.819712-9.878034 29.376811-29.114933 16.671296-57.710697"/><path d="m446.721032 506.000702c-26.23586 3.586733-44.342997 11.208646-44.342997 20.031706 0 12.271121 35.025128 22.21883 78.230814 22.21883s78.230814-9.947709 78.230814-22.21883c0-9.184981-19.62311-17.068252-47.611917-20.452524"/><path d="m448.059881 484.660074c-8.143872 2.865715-13.170339 6.801655-13.170339 11.145126 0 8.765086 20.469231 15.870592 45.719307 15.870592s45.719307-7.105506 45.719307-15.870592c0-3.631386-3.51345-6.977912-9.424705-9.652303"/><path d="m480.608849 849.269692v34.079545"/></g></g></svg>