<svg height="960" viewBox="0 0 960 960" width="960" xmlns="http://www.w3.org/2000/svg"><g fill="none" fill-rule="evenodd"><g stroke="#000" stroke-linecap="round" stroke-linejoin="round"><path d="m60.2747413 319.681888c11.772464-11.839363 27.4538103-17.732644 35.314905-17.732644 9.7594367 0 35.0012727-.213941 46.1490987-5.885154 7.431883-3.780809 28.159646-11.99632 62.183286-24.646533 8.532849-10.785298 14.875763-17.833649 19.028741-21.145052 6.229468-4.967105 30.975599-16.500062 83.557565-19.504356 52.581966-3.004293 95.39288 3.324155 110.355054 8.093736 9.974783 3.179721 15.961099 4.937174 17.958949 5.272358 42.882538-17.477423 67.808499-27.321566 74.777881-29.532429 10.454073-3.316294 43.041865-9.027375 73.125281 8.74262 30.083417 17.769995 42.018373 33.168846 53.46788 48.073123 11.449506 14.904277 19.458472 30.096951 50.459325 38.858236 31.000853 8.761286 60.932203 20.346791 72.84277 27.115324 7.940378 4.512355 14.711612 8.599157 20.313703 12.260405 30.28763 11.547618 57.190652 24.670614 80.709065 39.368988 35.277619 22.04756 48.192465 39.553654 54.813793 54.612823 6.621329 15.059169 20.667124 51.972357 20.667124 61.155338s-2.660565 22.435317-9.702719 29.424542c-4.694769 4.659482-7.475524 8.245116-8.342265 10.756899l-35.289522 98.622927c2.149439 7.520293 3.543178 13.655807 4.181217 18.40654.957058 7.1261.931289 19.782616-14.133532 32.694857-10.043214 8.608161-19.047844 14.863963-27.01389 18.767406 4.790576 14.893867 5.98822 28.762499 3.592932 41.605896-3.592932 19.265096-32.838962 60.955879-70.803859 60.955879-36.802477 0-57.62679-21.074285-77.593536-51.871221-.420438-.648489-1.117763-1.651843-2.091974-3.010064-48.476091 1.401352-88.725322-2.676063-120.747692-12.232246-48.033555-14.334274-123.528129-30.005657-170.351596-35.448244s-133.23247-14.192488-148.038591-18.767406c-9.870747-3.049945-21.175095-16.542453-33.913043-40.477524-5.061421 16.995244-12.337774 27.274057-21.829061 30.83644-14.23693 5.343573-45.014647 16.839502-88.318104-38.0574-28.8689716-36.597935-48.5345939-78.86104-58.9968669-126.789315-4.7338013-2.283106-8.6473193-.081265-11.7405541 6.605524-4.6398522 10.030182-6.4632616 21.171323-9.2419074 24.991039s-4.6301131-10.188935-6.8338213-17.589987c-2.2037083-7.401052-9.2178449-41.105273-9.2178449-51.807194s1.4964992-17.523333 4.4688595-19.590749c1.9815735-1.378278 2.5641531-2.601582 1.7477388-3.669911-1.1651592-50.620215-1.7477388-78.385433-1.7477388-83.295656 0-6.889267 14.0116125-20.201365 23.4116233-25.270281.2049601-.110524 3.8979064-1.78765 4.9020633-5.131719 1.10941-3.694585 1.0951664-4.917729 2.1818419-12.809637 1.0866754-7.891909 4.0838648-11.293225 5.7374209-12.956178z" stroke-width="40"/><path d="m19.5729324 475.67642c3.1670022 11.602717 179.9959586 106.44553 357.3382756 120.447916 177.342317 14.002385 301.069965 13.684286 320.023829 10.378461 18.953864-3.305826 34.487421-6.031601 43.611364-37.302515 3.78529-12.973498 2.317087-27.758036 21.951908-36.398641 22.004742-9.683525 51.236349-14.638755 88.35266-33.751941 51.032246-26.27925 51.671798-29.335799 54.600876-32.167121 2.929079-2.831321 18.50839-2.112956 27.229745 23.761251" stroke-width="20"/><path d="m695.672367 751.691091c82.969092-9.194912 98.513282-18.157494 146.896437-47.68049" stroke-width="20"/><path d="m67.0392155 521.256775c24.7580216 11.752703 47.1456535 21.293333 67.1628955 28.621891 16.879469 6.17978 52.776999 17.829309 64.306394 30.87612 9.813481 11.105062 24.629571 47.549587 37.674742 74.512264" stroke-width="20"/><path d="m105.654025 544.038476c19.146228 42.247549 35.251503 66.682808 48.315825 73.305777 19.596483 9.934454 37.066236 10.321869 42.75682-11.90365 3.793723-14.817013 4.751885-19.357891 2.874486-13.622636" stroke-width="20"/><path d="m32.6341471 373.464147c4.2605334 9.980975 12.5505186 18.917779 97.6279659 55.604273 85.077448 36.686494 127.793908 67.230313 326.269762 91.138217 198.475854 23.907905 313.423259 9.228292 386.277063-32.155821s71.727444-51.242441 61.550211-62.311805" stroke-width="20"/><path d="m49.7049943 391.657795c3.5347314-16.749981 29.3393721-65.544338 65.1639317-48.171777 35.82456 17.37256 77.369127 72.197371 91.318398 113.931553" stroke-width="20"/><path d="m92.499871 339.802126 35.170209-7.966759" stroke-width="20"/><path d="m96.1330301 410.858023c5.7079939-12.185174 11.6157559-19.151785 17.7232879-20.899833 8.87776-2.54092 26.797258-6.647675 52.779897 33.075947.82983 1.268688 11.500482 19.507966 14.381458 24.224302" stroke-width="20"/><path d="m56.8829678 348.129226c5.3664162-16.293859 23.6733578-57.922638 82.6301222-16.293859 58.956764 41.62878 49.29363 88.106025 108.698481 107.538205 59.404852 19.43218 288.393198 55.238768 422.318017 26.381342 133.924818-28.857425 179.981684-63.301064 109.279592-116.103392" stroke-width="20"/><path d="m190.773218 285.175121c-5.882026 3.364237-18.596742 9.18442 29.791398 18.81145 48.38814 9.627031 189.947756 69.802229 232.976188 85.775663 43.028433 15.973434 152.091273 58.674373 241.064917 22.048757 88.973645-36.625616-9.394983-73.246842-82.117976-101.138245-48.481996-18.594268-108.747013-37.273309-180.795052-56.037124" stroke-width="20"/><path d="m790.616901 566.198674c-2.858855 10.485769-6.13357 29.607679 2.680864 33.549509 8.814435 3.941831 16.647254 3.683732 42.574429-7.770186 25.927174-11.453918 53.748457-27.542459 62.669225-35.339379 5.564515-4.863491 13.408503-9.692167 15.893421-17.176943.681412-2.05247 1.451111-8.606568-1.939339-15.071698-4.066935-7.755097-12.722217-15.433258-15.937087-15.745819-4.852765-.471803-9.469492 1.888114-13.749467 4.731164-9.479156 6.296698-26.887792 14.24064-40.313681 20.045491-8.388169 3.62673-30.905911 8.657378-43.210689 16.554911-7.389935 4.743057-7.594965 12.288434-8.667676 16.22295z" stroke-width="20"/></g><path d="m793.831247 569.434349c1.153868 1.539308 16.771331 13.375137 30.757312 8.916758s35.547588-15.529576 40.044359-18.066973c4.49677-2.537398 5.421043-8.88251-1.662888-14.858007-4.722621-3.983665-6.680616-8.449838-5.873986-13.398518-29.165721 10.380508-46.100529 16.589899-50.804425 18.628172-7.055842 3.057411-13.61424 17.23926-12.460372 18.778568z" fill="#000"/></g></svg>