<?xml version="1.0" encoding="utf-8"?>
<!-- Generator: Adobe Illustrator 22.1.0, SVG Export Plug-In . SVG Version: 6.00 Build 0)  -->
<svg version="1.1" id="Layer_1" xmlns="http://www.w3.org/2000/svg" xmlns:xlink="http://www.w3.org/1999/xlink" x="0px" y="0px"
	 viewBox="0 0 75.3 75.3" style="enable-background:new 0 0 75.3 75.3;" xml:space="preserve">
<path d="M74.3,38h-7.6l2.7-2.7c0.4-0.4,0.4-1,0-1.4c-0.4-0.4-1-0.4-1.4,0L63.8,38h-3.4l5.6-5.6c0.4-0.4,0.4-1,0-1.4
	c-0.4-0.4-1-0.4-1.4,0l-7,7h-8.5c-0.2-2.4-1.2-4.5-2.7-6.2l7.5-7.5h9.9c0.6,0,1-0.4,1-1s-0.4-1-1-1h-7.9l2.4-2.4h5.9
	c0.6,0,1-0.4,1-1s-0.4-1-1-1h-3.9l5.4-5.4c0.4-0.4,0.4-1,0-1.4c-0.4-0.4-1-0.4-1.4,0l-5.4,5.4v-3.9c0-0.6-0.4-1-1-1s-1,0.4-1,1v5.9
	l-2.4,2.4V13c0-0.6-0.4-1-1-1s-1,0.4-1,1v9.9L45,30.4c-1.7-1.3-3.7-2.2-6-2.4V17.7l7-7c0.4-0.4,0.4-1,0-1.4s-1-0.4-1.4,0L39,14.9
	v-3.4l4.2-4.2c0.4-0.4,0.4-1,0-1.4s-1-0.4-1.4,0l-2.7,2.7V1c0-0.6-0.4-1-1-1s-1,0.4-1,1v7.6l-2.7-2.7c-0.4-0.4-1-0.4-1.4,0
	s-0.4,1,0,1.4l4.1,4.2v3.4l-5.7-5.6c-0.4-0.4-1-0.4-1.4,0s-0.4,1,0,1.4l7,7V28c-2.2,0.2-4.2,1.1-5.8,2.3l-6.4-6.4V14
	c0-0.6-0.4-1-1-1s-1,0.4-1,1v7.9l-2.4-2.4v-5.9c0-0.6-0.4-1-1-1s-1,0.4-1,1v3.9l-5.7-5.7c-0.4-0.4-1-0.4-1.4,0s-0.4,1,0,1.4l5.7,5.7
	h-3.9c-0.6,0-1,0.4-1,1c0,0.6,0.4,1,1,1H19l2.4,2.4h-7.9c-0.6,0-1,0.4-1,1s0.4,1,1,1h9.9l6.4,6.4c-1.5,1.7-2.5,3.9-2.7,6.3h-9l-7-7
	c-0.4-0.4-1-0.4-1.4,0s-0.4,1,0,1.4l5.6,5.6h-3.4l-4.1-4.1c-0.4-0.4-1-0.4-1.4,0s-0.4,1,0,1.4L9.1,38H1c-0.6,0-1,0.4-1,1s0.4,1,1,1
	h8.1l-2.7,2.7c-0.4,0.4-0.4,1,0,1.4c0.2,0.2,0.5,0.3,0.7,0.3s0.5-0.1,0.7-0.3l4.2-4.2h3.4l-5.6,5.6c-0.4,0.4-0.4,1,0,1.4
	c0.2,0.2,0.5,0.3,0.7,0.3s0.5-0.1,0.7-0.3l7-7h9c0.2,2.2,1.1,4.3,2.4,6l-4.9,4.9h-9.9c-0.6,0-1,0.4-1,1c0,0.6,0.4,1,1,1h7.9
	l-2.5,2.5h-5.9c-0.6,0-1,0.4-1,1s0.4,1,1,1h3.9L12.5,63c-0.4,0.4-0.4,1,0,1.4c0.2,0.2,0.5,0.3,0.7,0.3s0.5-0.1,0.7-0.3l5.7-5.7v3.9
	c0,0.6,0.4,1,1,1s1-0.4,1-1v-5.9l2.4-2.4v7.9c0,0.6,0.4,1,1,1s1-0.4,1-1v-9.9l4.9-4.9c1.7,1.5,3.8,2.4,6.1,2.7v7.1l-7,7
	c-0.4,0.4-0.4,1,0,1.4c0.2,0.2,0.5,0.3,0.7,0.3s0.5-0.1,0.7-0.3L37,60v3.4l-4.1,4.2c-0.4,0.4-0.4,1,0,1.4c0.2,0.2,0.5,0.3,0.7,0.3
	s0.5-0.1,0.7-0.3l2.7-2.7v8c0,0.6,0.4,1,1,1s1-0.4,1-1v-8.1l2.7,2.7c0.4,0.4,1,0.4,1.4,0c0.4-0.4,0.4-1,0-1.4l-4.2-4.2v-3.4l5.6,5.6
	c0.4,0.4,1,0.4,1.4,0c0.4-0.4,0.4-1,0-1.4l-7-7V50c2.4-0.2,4.6-1.2,6.4-2.7l5.9,5.9v9.9c0,0.6,0.4,1,1,1c0.6,0,1-0.4,1-1v-7.8
	l2.4,2.4v5.9c0,0.6,0.4,1,1,1s1-0.4,1-1v-3.9l5.4,5.4c0.2,0.2,0.5,0.3,0.7,0.3s0.5-0.1,0.7-0.3c0.4-0.4,0.4-1,0-1.4L59,58.3h3.9
	c0.6,0,1-0.4,1-1s-0.4-1-1-1H57l-2.4-2.4h7.9c0.6,0,1-0.4,1-1s-0.4-1-1-1h-9.9l-5.8-6c1.3-1.6,2.2-3.7,2.3-5.9h8.5l7,7
	c0.2,0.2,0.5,0.3,0.7,0.3s0.5-0.1,0.7-0.3c0.4-0.4,0.4-1,0-1.4L60.4,40h3.4l4.2,4.2c0.2,0.2,0.5,0.3,0.7,0.3s0.5-0.1,0.7-0.3
	c0.4-0.4,0.4-1,0-1.4l-2.7-2.7h7.6c0.6,0,1-0.4,1-1S74.8,38,74.3,38z M47.1,38h-6.8l4.8-4.8C46.2,34.6,46.9,36.2,47.1,38z
	 M43.6,31.9L39,36.5v-6.4C40.7,30.2,42.3,30.9,43.6,31.9z M37,30.1v6.1l-4.4-4.4C33.9,30.9,35.4,30.3,37,30.1z M31.2,33.2L36,38h-7
	C29.3,36.2,30.1,34.5,31.2,33.2z M29.1,40h6.3l-4.5,4.5C29.9,43.3,29.3,41.7,29.1,40z M32.3,46l4.7-4.7v6.8
	C35.2,47.9,33.6,47.1,32.3,46z M39,48.1V41l5,5C42.6,47.1,40.9,47.9,39,48.1z M45.4,44.5L40.9,40h6.2C47,41.7,46.3,43.2,45.4,44.5z"
	/>
</svg>
