<?xml version="1.0" encoding="utf-8"?>
<!-- Generator: Adobe Illustrator 22.1.0, SVG Export Plug-In . SVG Version: 6.00 Build 0)  -->
<svg version="1.1" id="Layer_1" xmlns="http://www.w3.org/2000/svg" xmlns:xlink="http://www.w3.org/1999/xlink" x="0px" y="0px"
	 viewBox="0 0 75.9 77" style="enable-background:new 0 0 75.9 77;" xml:space="preserve">
<path d="M74.9,46.6h-9.4c-0.7,0-1-0.7-0.7-1l8.4-18.1c0.3-0.3-0.3-1-0.7-1H57.1c-0.3,0-0.7,0.3-0.7,0.7l-1.6,7.1
	c-1.9-2.6-4.1-4.1-5.7-4.9c-4.4-2.1-9.7-1.7-13.5,1.1c-3.5,2.6-5.2,6.6-4.5,11.1c0.5,3.4,1.3,6.9,2.2,10.1c1.6,6.6,3.2,12.8,0.9,16
	c-1.2,1.7-3.5,2.6-7.2,2.9c-2.8,0.2-5-0.5-6.7-2c-5.3-5-5.3-18-5.3-28.5V26c5.2-1,9.1-5.9,9.1-11.7v-2.4H25c0.6,0,1.1-0.5,1.1-1.1
	V9.3c0-0.6-0.5-1.1-1.1-1.1h-5.5V1.4c0-0.8-0.6-1.4-1.4-1.4s-1.4,0.6-1.4,1.4v6.8H9.4V1.4C9.4,0.6,8.8,0,8,0S6.6,0.6,6.6,1.4v6.8
	H1.1C0.5,8.2,0,8.7,0,9.3v1.5c0,0.6,0.5,1.1,1.1,1.1H2v2.4C2,20.1,6,25,11.1,26v14.1c0,11.8,0,25.3,6.6,31.4
	c2.3,2.1,5.1,3.2,8.5,3.2c0.4,0,0.8,0,1.3,0c4.9-0.4,8.2-1.8,10.1-4.5c3.4-4.6,1.6-11.7-0.3-19.3c-0.8-3.2-1.6-6.5-2.1-9.8
	c-0.6-4,1.6-6.3,2.9-7.3c2.6-1.9,6.3-2.2,9.4-0.7c1.8,0.9,4.4,2.8,6.1,7.2l-3.3,14.8c0,0.7,0.3,1,0.7,1h8.4c0.3,0,0.7,0.3,0.7,0.7
	l-2.2,19.1c-0.1,1.1,1.3,1.5,1.8,0.6l16.1-28.8C76,47.3,75.6,46.6,74.9,46.6z"/>
</svg>
