<?xml version="1.0" encoding="UTF-8"?>
<svg width="955px" height="442px" viewBox="0 0 955 442" version="1.1" xmlns="http://www.w3.org/2000/svg" xmlns:xlink="http://www.w3.org/1999/xlink">
    <!-- Generator: Sketch 54.1 (76490) - https://sketchapp.com -->
    <title>3</title>
    <desc>Created with Sketch.</desc>
    <g id="3" stroke="none" stroke-width="1" fill="none" fill-rule="evenodd">
        <g id="Group" fill="#000000">
            <path d="M3.63000044,106.771965 C139.153238,112.977922 332.70108,131.781365 508.223356,157.709124 C691.84048,184.832636 844.329734,217.391436 948.855671,253.256356 C953.301901,270.007576 954.767417,287.443858 954.111613,305.89504 C953.933395,310.909237 953.918116,311.412372 953.918116,312.867015 L953.918116,403.727481 L833.66547,403.727481 C824.163037,425.72941 802.269641,441.127631 776.779799,441.127631 C751.289956,441.127631 729.39656,425.72941 719.894127,403.727481 L288.943373,403.727481 L284.385751,399.053507 L32.6711502,140.862783 L3.63000044,106.771965 Z M1.70530257e-13,75.6132612 C11.8533319,23.7856359 81.320041,5.5067062e-14 202.395449,5.5067062e-14 C419.325429,5.5067062e-14 685.318621,47.6014247 818.225766,119.10521 C823.416375,121.897748 828.447476,124.716203 833.321243,127.560237 C883.392622,156.778839 914.587925,185.300022 932.727344,215.357589 C827.280913,182.015589 683.388341,152.28032 512.748735,127.073818 C334.125841,100.688043 137.026953,81.639669 1.70530257e-13,75.6132612 L1.70530257e-13,75.6132612 Z" id="Shape"></path>
            <path d="M266.908903,421.990239 C243.413875,434.217012 216.710319,441.127631 188.392702,441.127631 C94.326138,441.127631 18.0701212,364.871614 18.0701212,270.805051 C18.0701212,240.944554 25.7543024,212.878795 39.2531192,188.477317 L98.1013809,248.83963 C96.3941999,255.881949 95.489476,263.237845 95.489476,270.805051 C95.489476,322.114085 137.083667,363.708276 188.392702,363.708276 C195.139308,363.708276 201.717949,362.989133 208.05615,361.62332 L266.908903,421.990239 Z" id="Path" fill-rule="nonzero"></path>
        </g>
    </g>
</svg>