<?xml version="1.0" encoding="UTF-8"?>
<svg width="610px" height="960px" viewBox="0 0 610 960" version="1.1" xmlns="http://www.w3.org/2000/svg" xmlns:xlink="http://www.w3.org/1999/xlink">
    <!-- Generator: Sketch 54.1 (76490) - https://sketchapp.com -->
    <title>2</title>
    <desc>Created with Sketch.</desc>
    <g id="2" stroke="none" stroke-width="1" fill="none" fill-rule="evenodd">
        <path d="M360.513416,960 L258.980906,960 C249.635097,960 242.058821,952.423724 242.058821,943.077915 L242.058821,896.044392 C242.058821,886.698582 234.482546,879.122307 225.136736,879.122307 L157.448396,879.122307 C148.102587,879.122307 140.526311,886.698582 140.526311,896.044392 L140.526311,943.077915 C140.526311,952.423724 132.950035,960 123.604226,960 L16.922085,960 C7.57627553,960 -4.54747351e-13,952.423724 -4.54747351e-13,943.077915 L-4.54747351e-13,551.896736 C-4.54747351e-13,472.233051 39.5502501,309.152805 84.8301369,193.209768 C122.440935,96.9040908 207.10345,18.6968278 282.00874,2.90760056 C289.538579,0.969226447 297.068176,2.62595239e-05 304.59753,0 C315.891562,-3.72237233e-05 327.185594,2.90744733 327.185594,2.90744733 C402.091063,18.6963221 486.754004,96.9037794 524.364924,193.209768 C569.644811,309.152805 609.195061,472.233051 609.195061,551.896736 L609.195061,943.077915 C609.195061,952.423724 601.618785,960 592.272976,960 L495.890096,960 C486.544287,960 478.968011,952.423724 478.968011,943.077915 L478.968011,896.044392 C478.968011,886.698582 471.391736,879.122307 462.045926,879.122307 L394.357586,879.122307 C385.011777,879.122307 377.435501,886.698582 377.435501,896.044392 L377.435501,943.077915 C377.435501,952.423724 369.859226,960 360.513416,960 Z M309.747161,236.083076 C337.78459,236.083076 360.513416,213.354249 360.513416,185.316821 C360.513416,157.279392 337.78459,134.550566 309.747161,134.550566 C281.709733,134.550566 258.980906,157.279392 258.980906,185.316821 C258.980906,213.354249 281.709733,236.083076 309.747161,236.083076 Z M309.747161,912.966477 C328.43878,912.966477 343.591331,897.813926 343.591331,879.122307 C343.591331,860.430688 328.43878,845.278137 309.747161,845.278137 C291.055542,845.278137 275.902991,860.430688 275.902991,879.122307 C275.902991,897.813926 291.055542,912.966477 309.747161,912.966477 Z M309.747161,794.511881 C431.242685,794.511881 529.734266,696.0203 529.734266,574.524776 C529.734266,453.029253 431.242685,354.537671 309.747161,354.537671 C188.251638,354.537671 89.7600559,453.029253 89.7600559,574.524776 C89.7600559,696.0203 188.251638,794.511881 309.747161,794.511881 Z M309.747161,743.745626 C216.289066,743.745626 140.526311,667.982871 140.526311,574.524776 C140.526311,481.066681 216.289066,405.303926 309.747161,405.303926 C403.205256,405.303926 478.968011,481.066681 478.968011,574.524776 C478.968011,667.982871 403.205256,743.745626 309.747161,743.745626 Z" id="Shape" fill="#000000"></path>
    </g>
</svg>