<svg height="960" viewBox="0 0 960 960" width="960" xmlns="http://www.w3.org/2000/svg"><g fill="none" fill-rule="evenodd" stroke="#000" stroke-linecap="round" stroke-linejoin="round"><path d="m266.424103 59.6891656c0 32.7623208-2.117923 85.6885914 77.068404 108.7415514s74.488279 22.258993 81.353452 37.441466c6.865172 15.182473 5.290576 44.567067 5.290576 97.488289 0 26.187428.638166 36.268923.319083 69.254417-.311671 32.219266 30.24058 97.711239 85.533069 100.736508.87663.047964 2.29753.047964 4.262698 0-1.581032 253.429492-2.371548 387.853233-2.371548 403.271225 0 23.126987 8.052627 60.877378 36.462093 60.877378s79.507154-42.076932 79.507154-165.754968c0-123.678035 8.446309-576.79634 8.446309-615.799421 0-39.00308-2.860631-76.8112581-67.89904-91.2046359s-104.848533-24.7218455-139.652736-32.6616375c-25.407775-5.7962093-68.57866-7.9573934-100.422112-5.9132711-4.249452.2727844-16.799945 1.3489977-29.270771 4.320728-10.704985 2.55094-21.295524 6.6604817-27.162325 11.0108119-12.70136 9.4182689-11.464306 17.6037097-11.464306 18.1915592z" stroke-width="40"/><path d="m530.163456 474.668014c1.977832-124.095984 3.843783-233.914176 3.843783-252.246416 0-39.00308-2.860631-76.811258-67.89904-91.204636s-104.848533-24.721845-139.652736-32.6616372c-33.37616-7.8442227-50.064241-19.2617475-50.064241-34.2525744" stroke-width="20"/></g></svg>