<svg height="960" viewBox="0 0 960 960" width="960" xmlns="http://www.w3.org/2000/svg"><g fill="none" fill-rule="evenodd" stroke="#000" stroke-linecap="round" stroke-linejoin="round"><path d="m225.96155 22c69.154722 0 125.346637 10.3625638 126.46356 23.2248566l.016945.3905235.001566 31.2769927c12.422426 3.4823194 19.536073 7.5292243 19.536073 11.8467448 0 .2045212-.015963.4084351-.047696.6117105l-.004217 8.9176906c0 5.2708273 1.131783 39.3066713 1.070106 60.9984353l11.080596-1.375197c12.570936-1.286698 25.566561-2.563224 39.066349-3.824414 102.405471-9.567018 148.16262-7.316962 205.544012 21.887792 8.968809 4.564752 96.555128 49.580707 110.439563 65.579153 12.26313 14.130285 33.88617 40.882391 50.627568 96.480328s69.265057 245.168188 81.650098 296.570008 21.653924 164.70037-74.075236 206.578863c-95.72916 41.878492-140.101175 45.7062-227.807477 57.05142-87.706302 11.345219-246.204635 33.527556-287.779718-75.85879-1.398146-3.678598-2.747047-7.210734-4.046702-10.596405-.820728.023715-1.716626.035115-2.688638.035115-.932808.548622-2.389763 1.067914-4.292464 1.550536-7.678514 5.5845-12.674239 24.568829-12.674239 29.031881 0 2.866862.334028 7.796285 1.002084 14.788267 6.290679 3.568914 6.758489 6.444631 6.777819 13.645915l.000306 1.048426c-.00104.718901-.003815 1.478404-.003815 2.282722 0 4.012204.198602 11.152697.351526 18.4561l.032739 1.604642.005274.267459.025424 1.335445c.062247 3.377171.107008 6.696133.109971 9.661774l-.000482.924429c-.010283 4.863979-.146387 8.637621-.524452 9.911058-1.181455 3.979489-13.695538 21.696519-50.457866 21.696519-36.394704 0-51.694857-22.92726-51.997221-29.752222l-.004578-.201848v-36.267938c0-11.882243 3.863483-15.252983 8.875014-16.712996l.000754-10.928441c0-14.680901-6.035693-26.825569-14.654573-34.69226l-.370952-.33452-.958782-.33975c-31.429421-11.273803-42.065907-28.639717-42.065907-36.706206 0-3.703622-.360708-14.397318-.590249-25.839197l-.022498-1.146451-.021515-1.150051c-.006996-.383797-.013809-.767962-.020422-1.152265l-.025098-1.522029c-.055922-3.550601-.092682-7.08691-.095909-10.426552l.000713-1.418702c.015195-7.496524.216314-13.829442.774978-16.820875 1.139635-6.102314 4.427141-9.944543 9.86252-11.526688l.349856-.097918v-8.366315c85.822867 60.290228 135.119976 97.776026 147.891326 112.457394 1.112953.290018 2.166075.576114 3.154151.857112-2.6236-6.752478-4.978466-12.620036-7.065499-17.60359-1.167967-2.788949-157.883622-106.789416-159.759958-107.810897-12.4209045-6.761964-23.5539483-19.077349-25.2920503-50.572969-.1548273-2.805579-7.4983563-136.474133-7.4983563-225.215027 0-29.350044-.9615109-64.601162-3.3488175-95.490127-.188467-2.438542-7.0753147-8.689412-7.3328741-11.028852-1.3485487-12.249018-3.0736789-20.539286-1.5467663-30.473367.2296349-1.494003 1.4004581-4.350117 2.5512824-7.249746l.3616323-.915581c1.0163886-2.58953 1.9357688-5.102779 2.0696565-6.595257 1.7071019-19.029462-7.5802086-35.527247 2.2290138-47.90115 3.6829732-4.645909 8.5769097-8.030213 14.6818097-10.152911l19.8073908-2.454957c-17.1445144-7.225564-23.0082719-14.541851-23.2576685-17.274679l-.008372-.177188-.0030905-85.7782099c-.0193483-.1588391-.029068-.3180629-.029068-.4776565 0-4.0732463 6.3314742-7.9056322 17.4788936-11.2503144l.0021518-31.8734231.0169448-.3905235c1.1169228-12.8622928 57.3088388-23.2248566 126.4635598-23.2248566z" stroke-width="40"/><g stroke-width="20"><path d="m268.173718 788.035343c-40.197624-161.193158-65.714869-264.303516-76.551733-309.331074-14.018234-58.246261-29.49725-97.577333-56.065029-119.68536-2.826499-2.352034-25.551628-20.974742-68.1753868-55.868125"/><path d="m526.397501 905.506832c-75.593459 10.359915-147.415904-10.359916-187.775896-40.607655-26.906661-20.16516-47.440168-59.433791-61.600522-117.805894-38.554731-161.207118-63.489278-264.188914-74.80364-308.945388-14.635909-57.895594-30.796966-96.989876-58.535382-118.964804-2.951041-2.337873-28.384539-20.35626-76.3004918-54.05516"/><path d="m531.32966 759.42286c65.924554-42.811906 81.152879-136.362345 34.013416-208.950753-47.139464-72.588408-138.79596-96.727032-204.720514-53.915126-65.924555 42.811906-81.15288 136.362345-34.013416 208.950753 47.139463 72.588408 138.79596 96.727033 204.720514 53.915126z"/><path d="m504.386362 695.943612c37.177126-24.143108 45.764903-76.899421 19.181337-117.834523-26.583567-40.935102-78.27182-54.547704-115.448946-30.404596s-45.764903 76.899421-19.181336 117.834523c26.583566 40.935103 78.27182 54.547704 115.448945 30.404596z"/><path d="m488.999348 665.447096c22.911485-14.878892 28.203952-47.391503 11.821056-72.61895-16.382895-25.227447-48.237284-33.616608-71.148769-18.737716-22.911484 14.878892-28.203951 47.391504-11.821056 72.61895 16.382896 25.227447 48.237285 33.616608 71.148769 18.737716z"/><path d="m698.758264 535.965113c9.510427-6.176144 11.7073-19.671945 4.906853-30.143715s-20.023024-13.954064-29.533451-7.77792c-9.510428 6.176144-11.707301 19.671945-4.906854 30.143715 6.800448 10.471771 20.023024 13.954064 29.533452 7.77792z"/><path d="m717.255868 608.927885c9.510427-6.176144 11.7073-19.671945 4.906853-30.143715s-20.023023-13.954064-29.533451-7.77792c-9.510427 6.176144-11.707301 19.671945-4.906853 30.143715 6.800447 10.471771 20.023023 13.954064 29.533451 7.77792z"/><path d="m735.753472 680.863012c9.510427-6.176143 11.707301-19.671944 4.906853-30.143715-6.800447-10.47177-20.023023-13.954064-29.533451-7.77792-9.510427 6.176144-11.7073 19.671945-4.906853 30.143716 6.800447 10.47177 20.023023 13.954063 29.533451 7.777919z"/><path d="m124.204071 687.722212v7.880872c-5.643963 1.429532-9.047844 5.079567-10.211643 10.950107-1.745699 8.80581 0 48.349917 0 56.025113s10.851671 24.288092 43.021602 34.896422c32.16993 10.60833 107.414448 8.278587 117.791278 2.529256"/><path d="m157.01403 808.830712c8.815518 7.400393 15.024447 18.971408 15.024447 33.00071v15.557554c6.533716 9.418707 21.465641 14.128061 44.795776 14.128061s37.496259-4.255835 42.498372-12.767507c-.995202-9.086955-1.492803-15.27884-1.492803-18.575655 0-4.945223 6.90922-28.813424 16.965486-28.813424"/><path d="m172.277748 854.702867c-5.127301 1.422716-9.114403 4.708457-9.114403 16.775837v36.256233c0 6.559176 15.238378 29.944403 51.998068 29.944403s49.272875-17.711312 50.454245-21.689518c1.18137-3.978205 0-32.364594 0-42.1473 0-9.782705.410836-12.933743-6.891707-17.037526"/><path d="m225.5 21c69.165381 0 125.365958 10.4757922 126.483053 23.4786271l.016947.3947906.003205 34.0156513c5.79564 2.3614892 8.967383 4.9214659 8.967383 7.5955464 0 .1548565-.010636.3093303-.031804.463405l.029107-.000389v8.7271554c0 2.7884525.363438 14.3676642.658981 27.4803022l.02349 1.052145c.02333 1.055141.046151 2.118857.068243 3.187433l.021841 1.070058c.021581 1.071402.04236 2.146426.062116 3.221355l.036171 2.036835c.005806.339141.011495.678038.017062 1.016574l.016323 1.014407.015542 1.011537c.065601 4.376095.108047 8.651541.112032 12.568812l-.00018 1.341277c-.012736 9.577968-.276891 16.731622-1.031621 17.437096-2.322244 2.17069-22.076998 29.887382-137.198091 29.887382-113.969882 0-141.2279786-26.329503-141.7617436-31.895799l-.0080564-.162272v-78.8070253c0-.0111336.0180404-.0221243.0541212-.0329721-.03515-.2043778-.0541212-.4105057-.0541212-.6173162 0-3.7265158 6.159635-7.231438 16.9962365-10.2863943l.0037635-31.3248034.0169474-.3947906c1.1170946-13.0028349 57.3176716-23.4786271 126.4830526-23.4786271z"/><ellipse cx="225.623431" cy="45.315167" rx="126.400295" ry="23.635828"/><path d="m99.2231362 79.2274415c0 13.053707 56.5913398 23.6358275 126.4002948 23.6358275s126.400295-10.5821205 126.400295-23.6358275"/><path d="m67.3815692 223.603838c36.5706888 24.206363 62.7399548 42.089851 78.5077968 53.650464 23.651763 17.34092 36.244123 43.573183 76.64498 226.735227 26.933905 122.10803 44.358014 210.118554 52.272329 264.031572"/></g></g></svg>