<svg height="960" viewBox="0 0 960 960" width="960" xmlns="http://www.w3.org/2000/svg"><g fill="none" fill-rule="evenodd"><g stroke="#000" stroke-linejoin="round"><path d="m373.906809 56.2214885c-14.712236 6.7551624-14.907913 21.2822689-14.810074 42.9183963.097838 21.6361272-.097839 25.3089882 0 27.6190902.097838 2.310102 0 6.898499 0 8.046327 0 1.147829-17.660936 27.284528-27.486828 54.222285-9.645623 26.443547-15.247658 50.333151-15.449966 95.78163-.00252.566267-.00252 1.468348 0 2.706245-3.412931 5.044361-5.798388 11.648857-7.156369 19.813486-2.036972 12.246944 0 25.792218 0 47.545529s3.655964 513.603088 3.655964 520.949463c0 4.897584 3.06153 9.17694 9.184589 12.83807" stroke-linecap="round" stroke-width="20"/><path d="m736.582732 144.790615v-63.3116955c-1.109437-4.6994182-2.431596-7.7994584-3.966477-9.3001206-3.097389-3.0283363-9.377201-4.3218161-11.738695-4.8794396-33.228844-7.8463823-129.400435-18.7182487-207.922995-18.7182487-93.115134 0-188.077562 14.7719912-202.451092 14.7719912s-14.431512 20.1963685-14.37353 39.8457152c.057982 19.649346-.057982 22.984939 0 25.082912.057982 2.097972 0 6.26503 0 7.307457 0 1.042426-10.466367 24.779071-16.289466 49.243215-5.716267 24.015314-9.03619 45.711208-9.156084 86.98629-.001493.514267-.001493 1.333513 0 2.457738-2.022599 4.581152-3.436287 10.579177-4.241065 17.994073-1.207167 11.122343 0 23.423796 0 43.179565s2.166627 460.77623 2.166627 467.44801 1.171486 57.843785 53.23417 85.763933 163.787662 35.256715 206.242367 25.650248c42.454705-9.606468 181.490184-50.212868 192.301326-105.504438 10.811143-55.29157 7.123281-108.04427 7.123281-133.421632 0-16.918241 0-93.669804 0-230.25469" stroke-linecap="round" stroke-width="20"/><path d="m512.954565 28.5811106c80.268948 0 178.555844 11.233716 212.519228 19.2535462 5.504483 1.274497 15.720983 4.7606488 21.124291 10.0434966 3.399306 3.3235221 7.574571 9.6600206 9.869158 20.9270807l.112758 64.3317659.578289.965987c23.438948 39.382522 37.542688 88.214794 37.837012 141.204449l.004699 1.692564c0 60.557438-18.041946 115.760376-47.469472 157.799307l-.019429.637081v229.9498c0 4.335646.112656 9.492661.238126 15.340203.62748 29.243738 1.502406 74.686069-7.733101 121.919345-4.965517 25.395211-30.210142 50.086878-66.028093 69.738083-48.745941 26.744033-114.246536 45.271297-141.487613 51.43529-45.325257 10.256003-164.554717 2.260684-220.10846-27.531648-22.077895-11.839922-36.447884-27.230126-45.888019-42.438836-17.410249-28.049116-17.893984-55.741541-17.893984-60.950548l-.000785-.377712c-.016847-5.752457-.303019-65.476093-.661887-140.425901-.125403-26.19041-.259701-54.238748-.394546-82.493981l-.027904-5.848321c-.320923-67.277184-.641679-135.081034-.849805-181.172897-12.181823-9.911975-22.753164-23.729861-31.356073-41.799345l-2.329122-4.92941v-122.837246c0-5.052034 4.917925-18.693143 21.683559-40.206667 9.859108-12.651127 20.910974-22.044016 32.996576-28.404375l.295032-.154222.079326-.233048c2.955693-8.708876 5.807767-16.070107 7.607845-20.694958l.129822-.3335.346581 2.508969c.002191-.362856.005516-.779706.009146-1.232694.006962-.868661.01517-1.880144.017417-2.889l.000159-.888795c-.001338-.616872-.005179-1.196978-.017719-1.650714-.013951-.504777-.021882-1.060953-.023837-1.77672l.000144-.966001c.002258-.62439.005137-1.272581.008258-1.974397.008519-1.91609.018858-4.238678.022854-7.592423l.000718-.691673-.000341-4.93636c-.002089-2.225212-.006834-4.755446-.015343-7.638853-.001175-.398179-.002302-.79658-.003266-1.195035l-.002312-1.203377-.000111-1.8011696c.01811-13.3052849 1.039605-26.1109711 4.526165-34.7717488 2.610135-6.4836958 6.442089-11.4157379 11.123374-14.8966039 4.973719-3.6983117 11.054053-6.0367969 18.729593-6.0367969 3.74948 0 13.423738-1.1778435 27.316646-2.7379453 38.743598-4.3507062 107.42248-12.0340459 175.134446-12.0340459z" stroke-width="40"/><path d="m736.930483 149.369521c23.828563 37.758696 38.069517 85.594359 38.069517 137.630479 0 122.05493-78.350169 221-175 221s-175-98.94507-175-221c0-57.840325 17.595059-110.49088 46.39456-149.881228.428977-.58673 1.147196-3.590927 1.147196-4.398064 0-34.1207433 0-53.7407726 0-58.8600874 0-7.8606206 44.017236-21.3129607 119.651102-21.3129607" stroke-linecap="round" stroke-width="20"/><path d="m645.791133 505.110051c3.834431 1.926633 3.834431 5.113838 0 9.561617-5.751646 6.671668-41.811918 7.232584-52.209142 7.232584-6.931482 0-20.623697-2.410861-41.076645-7.232584-92.23475-6.396787-165.505346-105.435053-165.505346-226.671668 0-57.117646 16.263077-109.308166 43.110376-149.205273.211895-.314892 1.464059-6.277478 1.464059-7.602085 0-.605953 0-1.224579 0-1.855877 0-9.641272 0-30.7535273 0-63.336765 5.282368-3.3396443 11.751219-6.038406 19.406555-8.0962851s38.927059-5.1654139 93.815169-9.3226043" stroke-linecap="round" stroke-width="20"/><path d="m223 255-.010167 41" stroke-linecap="round" stroke-width="20"/><path d="m368.694001 298.827448c-4.177886 11.513886-5.6295 7.968938-5.6295 36.588113v413.757329c0 66.367888 8.411078 115.027934-44.373307 139.48912" stroke-linecap="round" stroke-width="20"/></g><path d="m184.5 261h48.5v41h-48.5c-11.321837 0-20.5-9.178163-20.5-20.5s9.178163-20.5 20.5-20.5z" fill="#000"/><ellipse cx="599.5" cy="611" rx="29.5" ry="39" stroke="#000" stroke-linecap="round" stroke-linejoin="round" stroke-width="20"/><path d="m570 650c-16.061688-.358269-29-17.681604-29-39 0-21.323714 12.944769-38.650374 29.012164-38.994775l.487836-.005225h29.5c16.062226.358989 29 17.682047 29 39s-12.937774 38.641011-28.99914 38.994492l-.00086.005508z" stroke="#000" stroke-linecap="round" stroke-linejoin="round" stroke-width="20"/></g></svg>